<?xml version="1.0" encoding="utf-8"?>
<!-- Generator: Adobe Illustrator 21.0.0, SVG Export Plug-In . SVG Version: 6.00 Build 0)  -->
<svg version="1.1" id="Слой_1" xmlns="http://www.w3.org/2000/svg" xmlns:xlink="http://www.w3.org/1999/xlink" x="0px" y="0px"
	 viewBox="0 0 80 76" style="enable-background:new 0 0 80 76;" xml:space="preserve">
<style type="text/css">
	.st0{fill:none;stroke:#18a689;stroke-width:2;stroke-linecap:round;}
	.st1{fill:none;stroke:#18a689;stroke-width:2;}
</style>
<path class="st0" d="M6,7h61"/>
<path class="st1" d="M46.5,69.5c5.8,0,10.5-1.1,10.5-2.5s-4.7-2.5-10.5-2.5S36,65.6,36,67S40.7,69.5,46.5,69.5z M36,72
	c0,1.7,4.7,3,10.5,3l0,0c5.8,0,10.5-1.3,10.5-3 M36,67v5 M57,67v5 M9,66c0,1.7,4.7,3,10.5,3S30,67.7,30,66 M9,50v16 M30,50v16 M9,55
	c0,1.7,4.7,3,10.5,3l0,0c5.8,0,10.5-1.3,10.5-3 M9,60.5c0,1.7,4.7,3,10.5,3s10.5-1.3,10.5-3 M19.5,52.5c5.8,0,10.5-1.1,10.5-2.5
	s-4.7-2.5-10.5-2.5S9,48.6,9,50S13.7,52.5,19.5,52.5z"/>
<path class="st1" d="M76,13H8c-4.1,0-7-2.6-7-6c0-3,2.9-5.5,7-6h64v11"/>
<polygon id="a_1_" class="st1" points="48,35.5 55,43 79,43 79,27 55,27 "/>
<circle class="st1" cx="61" cy="35" r="3"/>
<path class="st1" d="M1,7v44.7C1,56.3,4.6,60,9,60"/>
<polyline class="st1" points="30,60 76,60 76,43 "/>
<path class="st1" d="M76,27V12"/>
</svg>
