<?xml version="1.0" encoding="utf-8"?>
<!-- Generator: Adobe Illustrator 21.0.0, SVG Export Plug-In . SVG Version: 6.00 Build 0)  -->
<svg version="1.1" id="Слой_1" xmlns="http://www.w3.org/2000/svg" xmlns:xlink="http://www.w3.org/1999/xlink" x="0px" y="0px"
	 viewBox="0 0 130 81" style="enable-background:new 0 0 130 81;" xml:space="preserve">
<style type="text/css">
	.st0{fill:none;stroke:#18a689;stroke-width:2;}
</style>
<ellipse class="st0" cx="19" cy="49" rx="11" ry="11"/>
<path class="st0" d="M11,56C5.2,58.9,1,65.2,1,72c0,10.6,36,10.6,36,0l0,0c0-6.9-4.2-13.1-10-16"/>
<ellipse class="st0" cx="111" cy="49" rx="11" ry="11"/>
<path class="st0" d="M103,56c-5.8,2.9-10,9.2-10,16c0,10.6,36,10.6,36,0l0,0c0-6.9-4.2-13.1-10-16 M19,26c9.2-31.1,77.8-35.5,87,0"
	/>
<polyline class="st0" points="96.6,20.7 106.1,26.6 108.8,15 "/>
<ellipse class="st0" cx="65" cy="49" rx="11" ry="11"/>
<path class="st0" d="M69,54c-1.1-0.6-2.5-1-4-1c-1.5,0-2.9,0.4-4,1 M57,56c-5.8,2.9-10,9.2-10,16c0,10.6,36,10.6,36,0l0,0
	c0-6.9-4.2-13.1-10-16 M60,46l3,2"/>
<path class="st0" d="M70,46l-3,2"/>
</svg>
