<?xml version="1.0" encoding="utf-8"?>
<!-- Generator: Adobe Illustrator 21.0.0, SVG Export Plug-In . SVG Version: 6.00 Build 0)  -->
<svg version="1.1" id="Слой_1" xmlns="http://www.w3.org/2000/svg" xmlns:xlink="http://www.w3.org/1999/xlink" x="0px" y="0px"
	 viewBox="0 0 69 68" style="enable-background:new 0 0 69 68;" xml:space="preserve">
<style type="text/css">
	.st0{fill:#18a689;}
</style>
<path class="st0" d="M63.4,0.2c-3.4,0.2-6.6,2.1-9.1,4.1l1.2,1.6c1.8-1.4,3.8-2.6,5.9-3.3c1.6-0.5,4.1-0.9,5.1,0.8
	c1,1.6,0.3,3.8-0.3,5.4c-0.9,2.2-2.2,4.2-3.8,6l-9.9-10L37.2,3.5c-4.1,4.1-8.2,8.3-12.3,12.4C18.3,22.6,11.7,29.3,5.1,36
	c-1.5,1.5-3,3.1-4.6,4.6l26.8,27.2l36.6-37.2l-1.1-13.5c3.1-3,6.2-7.3,6.2-11.7C69,2.1,66.6,0.1,63.4,0.2z M27.4,65l-24-24.4L38,5.5
	l13.6,1.1l9.2,9.3v0.5c-2.3,2.2-5.1,4.2-8.2,5.1c-0.1-3.3-2.5-6.2-5.8-6.8c-3.2-0.6-6.5,1.2-7.7,4.3c-1.2,3-0.1,6.6,2.6,8.4
	c2.8,1.9,6.7,1.4,9-1.1c0.6-0.7,1.1-1.4,1.4-2.3c0.2-0.6,0.5-0.6,1.1-0.7c0.5-0.1,1.1-0.3,1.6-0.5c2.3-0.9,4.4-2.3,6.2-3.9l0.9,11
	L27.4,65L27.4,65z M50.6,21.8c-1.7,0-3-0.9-3.1-2.7l-2,0.2c0.2,2.6,2.1,4.3,4.7,4.5c-1.1,2.3-3.9,3.4-6.3,2.5c-2.4-0.9-3.7-3.6-3-6
	c0.7-2.4,3.1-3.9,5.6-3.6C48.9,17.1,50.7,19.3,50.6,21.8L50.6,21.8C49.5,21.8,50.6,21.8,50.6,21.8L50.6,21.8z"/>
<path class="st0" d="M39.6,39.4c-0.8-1.3-2.1-2.3-3.4-3.1l-3.8,3.8l-0.9-0.9l-1,1l0.9,0.9l-0.7,0.7l-0.9-0.9l-1,1l0.9,0.9l-1.4,1.4
	l1.4,1.4l1.4-1.4l1.9,1.9l1-1l-1.9-1.9l0.7-0.7c1,1.5,3.1,2.8,5.1,2C39.9,43.6,40.9,41.3,39.6,39.4C39.2,39,39.9,39.8,39.6,39.4
	L39.6,39.4z M37.5,42.2c-1.2,1.2-2.8,0.5-3.5-0.8l2.6-2.6C37.7,39.7,38.6,41,37.5,42.2C37.3,42.5,37.9,41.8,37.5,42.2L37.5,42.2z"/>
<path class="st0" d="M31.1,31.3c0.6,0.6,0.9,1.2,1,1.8c0.1,0.6,0,1.2-0.2,1.8c-0.2,0.6-0.5,1.2-0.9,1.7s-0.8,1.1-1.3,1.5
	s-1,0.9-1.5,1.3s-1.1,0.7-1.7,0.9c-0.6,0.2-1.2,0.3-1.8,0.2c-0.6-0.1-1.2-0.4-1.8-1c-0.6-0.6-0.9-1.2-1-1.8c-0.1-0.6,0-1.2,0.2-1.8
	c0.2-0.6,0.5-1.2,0.9-1.7c0.4-0.6,0.8-1.1,1.3-1.5c0.5-0.5,1-0.9,1.5-1.3c0.6-0.4,1.1-0.7,1.7-0.9c0.6-0.2,1.2-0.3,1.8-0.2
	C30,30.4,30.6,30.7,31.1,31.3z M24,38.4c0.3,0.3,0.6,0.4,0.9,0.5c0.4,0,0.7,0,1.1-0.2s0.8-0.4,1.2-0.7c0.4-0.3,0.8-0.7,1.2-1.1
	c0.4-0.4,0.8-0.8,1.1-1.2s0.6-0.8,0.7-1.2s0.2-0.8,0.2-1.1c0-0.4-0.2-0.7-0.5-0.9c-0.3-0.3-0.6-0.4-1-0.5c-0.3,0-0.7,0.1-1.1,0.2
	c-0.4,0.2-0.8,0.4-1.2,0.7c-0.4,0.3-0.8,0.7-1.2,1.1c-0.4,0.4-0.8,0.8-1.1,1.2c-0.3,0.4-0.6,0.8-0.7,1.2c-0.2,0.4-0.2,0.8-0.2,1.1
	S23.7,38.2,24,38.4z"/>
<rect x="20.7" y="38.9" transform="matrix(0.7082 -0.706 0.706 0.7082 -26.9619 29.1048)" class="st0" width="2" height="16.6"/>
</svg>
